<?xml version="1.0" encoding="UTF-8"?>
<!--Generator: Apple Native CoreSVG 175.5-->
<!DOCTYPE svg
PUBLIC "-//W3C//DTD SVG 1.1//EN"
       "http://www.w3.org/Graphics/SVG/1.1/DTD/svg11.dtd">
<svg version="1.1" xmlns="http://www.w3.org/2000/svg" xmlns:xlink="http://www.w3.org/1999/xlink" width="3300" height="2200">
 <!--glyph: "uni100C32.medium", point size: 100.0, font version: "18.0d12e2", template writer version: "101"-->
 <g id="Notes">
  <rect height="2200" id="artboard" style="fill:white;opacity:1" width="3300" x="0" y="0"/>
  <line style="fill:none;stroke:black;opacity:1;stroke-width:0.5;" x1="263" x2="3036" y1="292" y2="292"/>
  <text style="stroke:none;fill:black;font-family:sans-serif;font-size:13;font-weight:bold;" transform="matrix(1 0 0 1 263 322)">Weight/Scale Variations</text>
  <text style="stroke:none;fill:black;font-family:sans-serif;font-size:13;text-anchor:middle;" transform="matrix(1 0 0 1 559.711 322)">Ultralight</text>
  <text style="stroke:none;fill:black;font-family:sans-serif;font-size:13;text-anchor:middle;" transform="matrix(1 0 0 1 856.422 322)">Thin</text>
  <text style="stroke:none;fill:black;font-family:sans-serif;font-size:13;text-anchor:middle;" transform="matrix(1 0 0 1 1153.13 322)">Light</text>
  <text style="stroke:none;fill:black;font-family:sans-serif;font-size:13;text-anchor:middle;" transform="matrix(1 0 0 1 1449.84 322)">Regular</text>
  <text style="stroke:none;fill:black;font-family:sans-serif;font-size:13;text-anchor:middle;" transform="matrix(1 0 0 1 1746.56 322)">Medium</text>
  <text style="stroke:none;fill:black;font-family:sans-serif;font-size:13;text-anchor:middle;" transform="matrix(1 0 0 1 2043.27 322)">Semibold</text>
  <text style="stroke:none;fill:black;font-family:sans-serif;font-size:13;text-anchor:middle;" transform="matrix(1 0 0 1 2339.98 322)">Bold</text>
  <text style="stroke:none;fill:black;font-family:sans-serif;font-size:13;text-anchor:middle;" transform="matrix(1 0 0 1 2636.69 322)">Heavy</text>
  <text style="stroke:none;fill:black;font-family:sans-serif;font-size:13;text-anchor:middle;" transform="matrix(1 0 0 1 2933.4 322)">Black</text>
  <line style="fill:none;stroke:black;opacity:1;stroke-width:0.5;" x1="263" x2="3036" y1="1903" y2="1903"/>
  <g transform="matrix(1 0 0 1 263 1933)">
   <path d="M9.24805 0.830078C13.5547 0.830078 17.1387-2.74414 17.1387-7.05078C17.1387-11.3574 13.5449-14.9316 9.23828-14.9316C4.94141-14.9316 1.36719-11.3574 1.36719-7.05078C1.36719-2.74414 4.95117 0.830078 9.24805 0.830078ZM9.24805-0.654297C5.70312-0.654297 2.87109-3.49609 2.87109-7.05078C2.87109-10.6055 5.69336-13.4473 9.23828-13.4473C12.793-13.4473 15.6445-10.6055 15.6445-7.05078C15.6445-3.49609 12.8027-0.654297 9.24805-0.654297ZM5.6543-7.05078C5.6543-6.62109 5.95703-6.32812 6.40625-6.32812L8.50586-6.32812L8.50586-4.20898C8.50586-3.76953 8.79883-3.4668 9.22852-3.4668C9.67773-3.4668 9.9707-3.76953 9.9707-4.20898L9.9707-6.32812L12.0898-6.32812C12.5293-6.32812 12.832-6.62109 12.832-7.05078C12.832-7.49023 12.5293-7.79297 12.0898-7.79297L9.9707-7.79297L9.9707-9.90234C9.9707-10.3516 9.67773-10.6543 9.22852-10.6543C8.79883-10.6543 8.50586-10.3516 8.50586-9.90234L8.50586-7.79297L6.40625-7.79297C5.95703-7.79297 5.6543-7.49023 5.6543-7.05078Z"/>
  </g>
  <g transform="matrix(1 0 0 1 281.867 1933)">
   <path d="M11.709 2.91016C17.1582 2.91016 21.6699-1.61133 21.6699-7.05078C21.6699-12.5 17.1484-17.0117 11.6992-17.0117C6.25977-17.0117 1.74805-12.5 1.74805-7.05078C1.74805-1.61133 6.26953 2.91016 11.709 2.91016ZM11.709 1.25C7.09961 1.25 3.41797-2.44141 3.41797-7.05078C3.41797-11.6602 7.08984-15.3516 11.6992-15.3516C16.3086-15.3516 20.0098-11.6602 20.0098-7.05078C20.0098-2.44141 16.3184 1.25 11.709 1.25ZM7.17773-7.05078C7.17773-6.57227 7.50977-6.25 8.00781-6.25L10.8789-6.25L10.8789-3.36914C10.8789-2.88086 11.2109-2.53906 11.6895-2.53906C12.1777-2.53906 12.5195-2.87109 12.5195-3.36914L12.5195-6.25L15.4004-6.25C15.8887-6.25 16.2305-6.57227 16.2305-7.05078C16.2305-7.53906 15.8887-7.88086 15.4004-7.88086L12.5195-7.88086L12.5195-10.752C12.5195-11.25 12.1777-11.5918 11.6895-11.5918C11.2109-11.5918 10.8789-11.25 10.8789-10.752L10.8789-7.88086L8.00781-7.88086C7.50977-7.88086 7.17773-7.53906 7.17773-7.05078Z"/>
  </g>
  <g transform="matrix(1 0 0 1 305.646 1933)">
   <path d="M14.9707 5.66406C21.9336 5.66406 27.6953-0.0976562 27.6953-7.05078C27.6953-14.0137 21.9238-19.7754 14.9609-19.7754C8.00781-19.7754 2.25586-14.0137 2.25586-7.05078C2.25586-0.0976562 8.01758 5.66406 14.9707 5.66406ZM14.9707 3.84766C8.93555 3.84766 4.08203-1.01562 4.08203-7.05078C4.08203-13.0957 8.92578-17.9492 14.9609-17.9492C21.0059-17.9492 25.8691-13.0957 25.8691-7.05078C25.8691-1.01562 21.0156 3.84766 14.9707 3.84766ZM9.19922-7.05078C9.19922-6.5332 9.57031-6.17188 10.1172-6.17188L14.0625-6.17188L14.0625-2.2168C14.0625-1.67969 14.4336-1.29883 14.9512-1.29883C15.4883-1.29883 15.8594-1.66992 15.8594-2.2168L15.8594-6.17188L19.8145-6.17188C20.3516-6.17188 20.7324-6.5332 20.7324-7.05078C20.7324-7.59766 20.3613-7.96875 19.8145-7.96875L15.8594-7.96875L15.8594-11.9141C15.8594-12.4609 15.4883-12.8418 14.9512-12.8418C14.4336-12.8418 14.0625-12.4609 14.0625-11.9141L14.0625-7.96875L10.1172-7.96875C9.57031-7.96875 9.19922-7.59766 9.19922-7.05078Z"/>
  </g>
  <text style="stroke:none;fill:black;font-family:sans-serif;font-size:13;font-weight:bold;" transform="matrix(1 0 0 1 263 1953)">Design Variations</text>
  <text style="stroke:none;fill:black;font-family:sans-serif;font-size:13;" transform="matrix(1 0 0 1 263 1971)">Symbols are supported in up to nine weights and three scales.</text>
  <text style="stroke:none;fill:black;font-family:sans-serif;font-size:13;" transform="matrix(1 0 0 1 263 1989)">For optimal layout with text and other symbols, vertically align</text>
  <text style="stroke:none;fill:black;font-family:sans-serif;font-size:13;" transform="matrix(1 0 0 1 263 2007)">symbols with the adjacent text.</text>
  <line style="fill:none;stroke:#00AEEF;stroke-width:0.5;opacity:1.0;" x1="776" x2="776" y1="1919" y2="1933"/>
  <g transform="matrix(1 0 0 1 776 1933)">
   <path d="M3.31055 0.15625C3.82812 0.15625 4.08203-0.0390625 4.26758-0.585938L5.52734-4.0332L11.2891-4.0332L12.5488-0.585938C12.7344-0.0390625 12.9883 0.15625 13.4961 0.15625C14.0137 0.15625 14.3457-0.15625 14.3457-0.644531C14.3457-0.810547 14.3164-0.966797 14.2383-1.17188L9.6582-13.3691C9.43359-13.9648 9.0332-14.2676 8.4082-14.2676C7.80273-14.2676 7.39258-13.9746 7.17773-13.3789L2.59766-1.16211C2.51953-0.957031 2.49023-0.800781 2.49023-0.634766C2.49023-0.146484 2.80273 0.15625 3.31055 0.15625ZM6.00586-5.51758L8.37891-12.0898L8.42773-12.0898L10.8008-5.51758Z"/>
  </g>
  <line style="fill:none;stroke:#00AEEF;stroke-width:0.5;opacity:1.0;" x1="793.197" x2="793.197" y1="1919" y2="1933"/>
  <text style="stroke:none;fill:black;font-family:sans-serif;font-size:13;font-weight:bold;" transform="matrix(1 0 0 1 776 1953)">Margins</text>
  <text style="stroke:none;fill:black;font-family:sans-serif;font-size:13;" transform="matrix(1 0 0 1 776 1971)">Leading and trailing margins on the left and right side of each symbol</text>
  <text style="stroke:none;fill:black;font-family:sans-serif;font-size:13;" transform="matrix(1 0 0 1 776 1989)">can be adjusted by modifying the x-location of the margin guidelines.</text>
  <text style="stroke:none;fill:black;font-family:sans-serif;font-size:13;" transform="matrix(1 0 0 1 776 2007)">Modifications are automatically applied proportionally to all</text>
  <text style="stroke:none;fill:black;font-family:sans-serif;font-size:13;" transform="matrix(1 0 0 1 776 2025)">scales and weights.</text>
  <g transform="matrix(1 0 0 1 1289 1933)">
   <path d="M2.8418 1.86523L4.54102 3.57422C5.40039 4.44336 6.38672 4.38477 7.31445 3.35938L18.0078-8.42773L17.041-9.4043L6.42578 2.27539C6.07422 2.67578 5.74219 2.77344 5.27344 2.30469L4.10156 1.14258C3.63281 0.683594 3.74023 0.341797 4.14062-0.0195312L15.6152-10.8203L14.6387-11.7871L3.04688-0.898438C2.06055 0.0195312 1.98242 0.996094 2.8418 1.86523ZM9.25781-16.3281C8.83789-15.918 8.80859-15.3418 9.04297-14.9512C9.27734-14.5898 9.73633-14.3555 10.3809-14.5215C11.8457-14.8633 13.3691-14.9219 14.7949-13.9844L14.209-12.5293C13.8672-11.6992 14.043-11.1133 14.5801-10.5664L16.875-8.25195C17.3633-7.76367 17.7734-7.74414 18.3398-7.8418L19.4043-8.03711L20.0684-7.36328L20.0293-6.80664C19.9902-6.30859 20.1172-5.92773 20.6055-5.44922L21.3672-4.70703C21.8457-4.22852 22.4609-4.19922 22.9297-4.66797L25.8398-7.58789C26.3086-8.05664 26.2891-8.65234 25.8105-9.13086L25.0391-9.89258C24.5605-10.3711 24.1895-10.5273 23.7109-10.4883L23.1348-10.4395L22.4902-11.0742L22.7344-12.1973C22.8613-12.7637 22.7051-13.2031 22.1191-13.7891L19.9219-15.9766C16.582-19.2969 12.1484-19.2188 9.25781-16.3281ZM10.752-15.957C13.1836-17.7344 16.4746-17.4316 18.7012-15.2051L21.1328-12.793C21.3672-12.5586 21.4062-12.373 21.3379-12.0312L21.0156-10.5469L22.5195-9.0625L23.5059-9.12109C23.7598-9.13086 23.8379-9.11133 24.0332-8.91602L24.6094-8.33984L22.168-5.89844L21.5918-6.47461C21.3965-6.66992 21.3672-6.74805 21.377-7.01172L21.4453-7.98828L19.9512-9.47266L18.4277-9.21875C18.1055-9.15039 17.959-9.17969 17.7148-9.41406L15.7129-11.416C15.459-11.6504 15.4297-11.8164 15.5859-12.1875L16.4648-14.2773C14.9023-15.7324 12.8711-16.3574 10.8398-15.7617C10.6836-15.7227 10.625-15.8496 10.752-15.957Z"/>
  </g>
  <text style="stroke:none;fill:black;font-family:sans-serif;font-size:13;font-weight:bold;" transform="matrix(1 0 0 1 1289 1953)">Exporting</text>
  <text style="stroke:none;fill:black;font-family:sans-serif;font-size:13;" transform="matrix(1 0 0 1 1289 1971)">Symbols should be outlined when exporting to ensure the</text>
  <text style="stroke:none;fill:black;font-family:sans-serif;font-size:13;" transform="matrix(1 0 0 1 1289 1989)">design is preserved when submitting to Xcode.</text>
  <text id="template-version" style="stroke:none;fill:black;font-family:sans-serif;font-size:13;text-anchor:end;" transform="matrix(1 0 0 1 3036 1933)">Template v.4.0</text>
  <text style="stroke:none;fill:black;font-family:sans-serif;font-size:13;text-anchor:end;" transform="matrix(1 0 0 1 3036 1951)">Requires Xcode 14 or greater</text>
  <text id="descriptive-name" style="stroke:none;fill:black;font-family:sans-serif;font-size:13;text-anchor:end;" transform="matrix(1 0 0 1 3036 1969)">Generated from sidebar.trailing</text>
  <text style="stroke:none;fill:black;font-family:sans-serif;font-size:13;text-anchor:end;" transform="matrix(1 0 0 1 3036 1987)">Typeset at 100 points</text>
  <text style="stroke:none;fill:black;font-family:sans-serif;font-size:13;" transform="matrix(1 0 0 1 263 726)">Small</text>
  <text style="stroke:none;fill:black;font-family:sans-serif;font-size:13;" transform="matrix(1 0 0 1 263 1156)">Medium</text>
  <text style="stroke:none;fill:black;font-family:sans-serif;font-size:13;" transform="matrix(1 0 0 1 263 1586)">Large</text>
 </g>
 <g id="Guides">
  <g id="H-reference" style="fill:#27AAE1;stroke:none;" transform="matrix(1 0 0 1 339 696)">
   <path d="M0.993654 0L3.63775 0L29.3281-67.1323L30.0303-67.1323L30.0303-70.459L28.1226-70.459ZM11.6885-24.4799L46.9815-24.4799L46.2315-26.7285L12.4385-26.7285ZM55.1196 0L57.7637 0L30.6382-70.459L29.4326-70.459L29.4326-67.1323Z"/>
  </g>
  <line id="Baseline-S" style="fill:none;stroke:#27AAE1;opacity:1;stroke-width:0.5;" x1="263" x2="3036" y1="696" y2="696"/>
  <line id="Capline-S" style="fill:none;stroke:#27AAE1;opacity:1;stroke-width:0.5;" x1="263" x2="3036" y1="625.541" y2="625.541"/>
  <g id="H-reference" style="fill:#27AAE1;stroke:none;" transform="matrix(1 0 0 1 339 1126)">
   <path d="M0.993654 0L3.63775 0L29.3281-67.1323L30.0303-67.1323L30.0303-70.459L28.1226-70.459ZM11.6885-24.4799L46.9815-24.4799L46.2315-26.7285L12.4385-26.7285ZM55.1196 0L57.7637 0L30.6382-70.459L29.4326-70.459L29.4326-67.1323Z"/>
  </g>
  <line id="Baseline-M" style="fill:none;stroke:#27AAE1;opacity:1;stroke-width:0.5;" x1="263" x2="3036" y1="1126" y2="1126"/>
  <line id="Capline-M" style="fill:none;stroke:#27AAE1;opacity:1;stroke-width:0.5;" x1="263" x2="3036" y1="1055.54" y2="1055.54"/>
  <g id="H-reference" style="fill:#27AAE1;stroke:none;" transform="matrix(1 0 0 1 339 1556)">
   <path d="M0.993654 0L3.63775 0L29.3281-67.1323L30.0303-67.1323L30.0303-70.459L28.1226-70.459ZM11.6885-24.4799L46.9815-24.4799L46.2315-26.7285L12.4385-26.7285ZM55.1196 0L57.7637 0L30.6382-70.459L29.4326-70.459L29.4326-67.1323Z"/>
  </g>
  <line id="Baseline-L" style="fill:none;stroke:#27AAE1;opacity:1;stroke-width:0.5;" x1="263" x2="3036" y1="1556" y2="1556"/>
  <line id="Capline-L" style="fill:none;stroke:#27AAE1;opacity:1;stroke-width:0.5;" x1="263" x2="3036" y1="1485.54" y2="1485.54"/>
  <line id="left-margin-Regular-M" style="fill:none;stroke:#00AEEF;stroke-width:0.5;opacity:1.0;" x1="1379.84" x2="1379.84" y1="1030.79" y2="1150.12"/>
  <line id="right-margin-Regular-M" style="fill:none;stroke:#00AEEF;stroke-width:0.5;opacity:1.0;" x1="1519.85" x2="1519.85" y1="1030.79" y2="1150.12"/>
 </g>
 <g id="Symbols">
  <g id="Black-L" transform="matrix(1 0 0 1 2841.56 1556)">
   <path d="M39.8556 26.4225L143.831 26.4225C158.995 26.4225 167.603 17.8126 167.603 2.71334L167.603-73.0895C167.603-88.1888 158.995-96.7987 143.831-96.7987L39.8556-96.7987C24.7123-96.7987 16.084-88.1912 16.084-73.0895L16.084 2.71334C16.084 17.815 24.7123 26.4225 39.8556 26.4225ZM42.5864 6.42071C38.2704 6.42071 36.065 4.51135 36.065-0.121475L36.065-70.2547C36.065-74.8667 38.2704-76.7969 42.5864-76.7969L141.1-76.7969C145.411-76.7969 147.622-74.8667 147.622-70.2547L147.622-0.121475C147.622 4.51135 145.411 6.42071 141.1 6.42071ZM92.085 8.59133L110.231 8.59133L110.231-79.6179L92.085-79.6179ZM123.365-54.7553L134.254-54.7553C137.634-54.7553 140.285-57.3683 140.285-60.4342C140.285-63.4988 137.634-66.1286 134.254-66.1286L123.365-66.1286C120.005-66.1286 117.356-63.4988 117.356-60.4342C117.356-57.3683 120.005-54.7553 123.365-54.7553ZM123.365-36.0238L134.254-36.0238C137.634-36.0238 140.285-38.616 140.285-41.7015C140.285-44.7674 137.634-47.3388 134.254-47.3388L123.365-47.3388C120.005-47.3388 117.356-44.7674 117.356-41.7015C117.356-38.616 120.005-36.0238 123.365-36.0238ZM123.365-17.2352L134.254-17.2352C137.634-17.2352 140.285-19.8846 140.285-22.9505C140.285-26.0164 137.634-28.5866 134.254-28.5866L123.365-28.5866C120.005-28.5866 117.356-26.0164 117.356-22.9505C117.356-19.8846 120.005-17.2352 123.365-17.2352Z"/>
  </g>
  <g id="Heavy-L" transform="matrix(1 0 0 1 2545.23 1556)">
   <path d="M38.8315 25.5159L144.087 25.5159C158.73 25.5159 166.834 17.4 166.834 2.85894L166.834-73.2263C166.834-87.7674 158.73-95.8832 144.087-95.8832L38.8315-95.8832C24.2188-95.8832 16.084-87.7786 16.084-73.2263L16.084 2.85894C16.084 17.4112 24.2188 25.5159 38.8315 25.5159ZM40.9557 7.98528C36.118 7.98528 33.5844 5.72074 33.5844 0.583786L33.5844-70.9511C33.5844-76.0579 36.118-78.3526 40.9557-78.3526L141.963-78.3526C146.778-78.3526 149.334-76.0579 149.334-70.9511L149.334 0.583786C149.334 5.72074 146.778 7.98528 141.963 7.98528ZM95.7422 10.0858L111.783 10.0858L111.783-80.9542L95.7422-80.9542ZM124.674-55.9901L136.265-55.9901C139.289-55.9901 141.685-58.3714 141.685-61.1367C141.685-63.8964 139.289-66.2621 136.265-66.2621L124.674-66.2621C121.68-66.2621 119.29-63.8964 119.29-61.1367C119.29-58.3714 121.68-55.9901 124.674-55.9901ZM124.674-37.8083L136.265-37.8083C139.289-37.8083 141.685-40.1594 141.685-42.9493C141.685-45.7146 139.289-48.0356 136.265-48.0356L124.674-48.0356C121.68-48.0356 119.29-45.7146 119.29-42.9493C119.29-40.1594 121.68-37.8083 124.674-37.8083ZM124.674-19.5875L136.265-19.5875C139.289-19.5875 141.685-21.9776 141.685-24.7429C141.685-27.5083 139.289-29.8236 136.265-29.8236L124.674-29.8236C121.68-29.8236 119.29-27.5083 119.29-24.7429C119.29-21.9776 121.68-19.5875 124.674-19.5875Z"/>
  </g>
  <g id="Bold-L" transform="matrix(1 0 0 1 2249.01 1556)">
   <path d="M37.5412 24.3865L144.394 24.3865C158.347 24.3865 165.852 16.8555 165.852 3.04324L165.852-73.3953C165.852-87.2076 158.347-94.7386 144.394-94.7386L37.5412-94.7386C23.6265-94.7386 16.084-87.2341 16.084-73.3953L16.084 3.04324C16.084 16.882 23.6265 24.3865 37.5412 24.3865ZM38.987 9.90678C33.4665 9.90678 30.5257 7.19674 30.5257 1.40752L30.5257-71.7596C30.5257-77.5109 33.4665-80.2589 38.987-80.2589L142.949-80.2589C148.416-80.2589 151.41-77.5109 151.41-71.7596L151.41 1.40752C151.41 7.19674 148.416 9.90678 142.949 9.90678ZM100.112 11.878L113.525 11.878L113.525-82.5988L100.112-82.5988ZM126.139-57.5267L138.68-57.5267C141.266-57.5267 143.339-59.6087 143.339-61.9976C143.339-64.3733 141.266-66.4086 138.68-66.4086L126.139-66.4086C123.591-66.4086 121.531-64.3733 121.531-61.9976C121.531-59.6087 123.591-57.5267 126.139-57.5267ZM126.139-39.9168L138.68-39.9168C141.266-39.9168 143.339-41.9609 143.339-44.3746C143.339-46.7635 141.266-48.7696 138.68-48.7696L126.139-48.7696C123.591-48.7696 121.531-46.7635 121.531-44.3746C121.531-41.9609 123.591-39.9168 126.139-39.9168ZM126.139-22.2911L138.68-22.2911C141.266-22.2911 143.339-24.3511 143.339-26.74C143.339-29.1289 141.266-31.1218 138.68-31.1218L126.139-31.1218C123.591-31.1218 121.531-29.1289 121.531-26.74C121.531-24.3511 123.591-22.2911 126.139-22.2911Z"/>
  </g>
  <g id="Semibold-L" transform="matrix(1 0 0 1 1952.64 1556)">
   <path d="M36.6517 23.608L144.607 23.608C158.083 23.608 165.174 16.4801 165.174 3.17029L165.174-73.5119C165.174-86.8217 158.083-93.9496 144.607-93.9496L36.6517-93.9496C23.2182-93.9496 16.084-86.8587 16.084-73.5119L16.084 3.17029C16.084 16.5171 23.2182 23.608 36.6517 23.608ZM37.6298 11.2314C31.6387 11.2314 28.4171 8.21429 28.4171 1.97539L28.4171-72.317C28.4171-78.5125 31.6387-81.573 37.6298-81.573L143.628-81.573C149.546-81.573 152.841-78.5125 152.841-72.317L152.841 1.97539C152.841 8.21429 149.546 11.2314 143.628 11.2314ZM103.124 13.1135L114.726 13.1135L114.726-83.7327L103.124-83.7327ZM127.149-58.586L140.345-58.586C142.629-58.586 144.48-60.4617 144.48-62.5911C144.48-64.7021 142.629-66.5097 140.345-66.5097L127.149-66.5097C124.908-66.5097 123.075-64.7021 123.075-62.5911C123.075-60.4617 124.908-58.586 127.149-58.586ZM127.149-41.3705L140.345-41.3705C142.629-41.3705 144.48-43.2028 144.48-45.3572C144.48-47.4866 142.629-49.2756 140.345-49.2756L127.149-49.2756C124.908-49.2756 123.075-47.4866 123.075-45.3572C123.075-43.2028 124.908-41.3705 127.149-41.3705ZM127.149-24.1549L140.345-24.1549C142.629-24.1549 144.48-25.9874 144.48-28.1168C144.48-30.2462 142.629-32.0168 140.345-32.0168L127.149-32.0168C124.908-32.0168 123.075-30.2462 123.075-28.1168C123.075-25.9874 124.908-24.1549 127.149-24.1549Z"/>
  </g>
  <g id="Medium-L" transform="matrix(1 0 0 1 1656.18 1556)">
   <path d="M35.9773 23.0176L144.767 23.0176C157.883 23.0176 164.661 16.1955 164.661 3.26662L164.661-73.6003C164.661-86.5291 157.883-93.3513 144.767-93.3513L35.9773-93.3513C22.9086-93.3513 16.084-86.574 16.084-73.6003L16.084 3.26662C16.084 16.2404 22.9086 23.0176 35.9773 23.0176ZM36.6007 12.2359C30.2527 12.2359 26.8183 8.98584 26.8183 2.40598L26.8183-72.7396C26.8183-79.272 30.2527-82.5695 36.6007-82.5695L144.144-82.5695C150.402-82.5695 153.926-79.272 153.926-72.7396L153.926 2.40598C153.926 8.98584 150.402 12.2359 144.144 12.2359ZM105.408 14.0503L115.637 14.0503L115.637-84.5924L105.408-84.5924ZM127.914-59.3892L141.607-59.3892C143.662-59.3892 145.345-61.1085 145.345-63.0411C145.345-64.9514 143.662-66.5863 141.607-66.5863L127.914-66.5863C125.907-66.5863 124.247-64.9514 124.247-63.0411C124.247-61.1085 125.907-59.3892 127.914-59.3892ZM127.914-42.4727L141.607-42.4727C143.662-42.4727 145.345-44.1445 145.345-46.1022C145.345-48.0349 143.662-49.6593 141.607-49.6593L127.914-49.6593C125.907-49.6593 124.247-48.0349 124.247-46.1022C124.247-44.1445 125.907-42.4727 127.914-42.4727ZM127.914-25.5681L141.607-25.5681C143.662-25.5681 145.345-27.228 145.345-29.1607C145.345-31.0934 143.662-32.6954 141.607-32.6954L127.914-32.6954C125.907-32.6954 124.247-31.0934 124.247-29.1607C124.247-27.228 125.907-25.5681 127.914-25.5681Z"/>
  </g>
  <g id="Regular-L" transform="matrix(1 0 0 1 1359.81 1556)">
   <path d="M35.0976 22.2476L144.977 22.2476C157.623 22.2476 163.991 15.8242 163.991 3.39227L163.991-73.7155C163.991-86.1475 157.623-92.5709 144.977-92.5709L35.0976-92.5709C22.5048-92.5709 16.084-86.2028 16.084-73.7155L16.084 3.39227C16.084 15.8795 22.5048 22.2476 35.0976 22.2476ZM35.2584 13.546C28.4449 13.546 24.7328 9.9922 24.7328 2.96762L24.7328-73.2909C24.7328-80.2627 28.4449-83.8692 35.2584-83.8692L144.816-83.8692C151.519-83.8692 155.342-80.2627 155.342-73.2909L155.342 2.96762C155.342 9.9922 151.519 13.546 144.816 13.546ZM108.387 15.2723L116.825 15.2723L116.825-85.7138L108.387-85.7138ZM128.913-60.4368L143.254-60.4368C145.01-60.4368 146.473-61.9521 146.473-63.6281C146.473-65.2765 145.01-66.6862 143.254-66.6862L128.913-66.6862C127.209-66.6862 125.775-65.2765 125.775-63.6281C125.775-61.9521 127.209-60.4368 128.913-60.4368ZM128.913-43.9103L143.254-43.9103C145.01-43.9103 146.473-45.3728 146.473-47.074C146.473-48.75 145.01-50.1597 143.254-50.1597L128.913-50.1597C127.209-50.1597 125.775-48.75 125.775-47.074C125.775-45.3728 127.209-43.9103 128.913-43.9103ZM128.913-27.4115L143.254-27.4115C145.01-27.4115 146.473-28.8463 146.473-30.5224C146.473-32.1984 145.01-33.5805 143.254-33.5805L128.913-33.5805C127.209-33.5805 125.775-32.1984 125.775-30.5224C125.775-28.8463 127.209-27.4115 128.913-27.4115Z"/>
  </g>
  <g id="Light-L" transform="matrix(1 0 0 1 1063.53 1556)">
   <path d="M34.067 21.4269L145.13 21.4269C157.012 21.4269 163.113 15.2326 163.113 3.54496L163.113-73.83C163.113-85.5176 157.012-91.712 145.13-91.712L34.067-91.712C22.2185-91.712 16.084-85.6111 16.084-73.83L16.084 3.54496C16.084 15.3261 22.2185 21.4269 34.067 21.4269ZM34.2278 14.7674C26.7082 14.7674 22.7098 10.8701 22.7098 3.21573L22.7098-73.5008C22.7098-81.1215 26.7082-85.0525 34.2278-85.0525L144.969-85.0525C152.302-85.0525 156.487-81.1215 156.487-73.5008L156.487 3.21573C156.487 10.8701 152.302 14.7674 144.969 14.7674ZM110.372 16.1311L116.863 16.1311L116.863-86.7826L110.372-86.7826ZM128.913-61.5438L144.437-61.5438C145.907-61.5438 147.103-62.7727 147.103-64.1625C147.103-65.5056 145.907-66.6671 144.437-66.6671L128.913-66.6671C127.477-66.6671 126.328-65.5056 126.328-64.1625C126.328-62.7727 127.477-61.5438 128.913-61.5438ZM128.913-44.7119L144.437-44.7119C145.907-44.7119 147.103-45.9072 147.103-47.2839C147.103-48.6737 145.907-49.8353 144.437-49.8353L128.913-49.8353C127.477-49.8353 126.328-48.6737 126.328-47.2839C126.328-45.9072 127.477-44.7119 128.913-44.7119ZM128.913-27.9268L144.437-27.9268C145.907-27.9268 147.103-29.0753 147.103-30.4651C147.103-31.8549 145.907-32.9698 144.437-32.9698L128.913-32.9698C127.477-32.9698 126.328-31.8549 126.328-30.4651C126.328-29.0753 127.477-27.9268 128.913-27.9268Z"/>
  </g>
  <g id="Thin-L" transform="matrix(1 0 0 1 767.404 1556)">
   <path d="M32.7039 20.3415L145.332 20.3415C156.204 20.3415 161.952 14.4501 161.952 3.74689L161.952-73.9815C161.952-84.6847 156.204-90.5761 145.332-90.5761L32.7039-90.5761C21.8399-90.5761 16.084-84.8286 16.084-73.9815L16.084 3.74689C16.084 14.594 21.8399 20.3415 32.7039 20.3415ZM32.8648 16.3829C24.4111 16.3829 20.0342 12.0312 20.0342 3.54387L20.0342-73.7785C20.0342-82.2574 24.4111-86.6175 32.8648-86.6175L145.171-86.6175C153.337-86.6175 158.001-82.2574 158.001-73.7785L158.001 3.54387C158.001 12.0312 153.337 16.3829 145.171 16.3829ZM112.997 17.267L116.914 17.267L116.914-88.1961L112.997-88.1961ZM128.913-63.0078L146.002-63.0078C147.094-63.0078 147.936-63.8581 147.936-64.8693C147.936-65.8085 147.094-66.6419 146.002-66.6419L128.913-66.6419C127.83-66.6419 127.06-65.8085 127.06-64.8693C127.06-63.8581 127.83-63.0078 128.913-63.0078ZM128.913-45.7721L146.002-45.7721C147.094-45.7721 147.936-46.614 147.936-47.5616C147.936-48.5727 147.094-49.4062 146.002-49.4062L128.913-49.4062C127.83-49.4062 127.06-48.5727 127.06-47.5616C127.06-46.614 127.83-45.7721 128.913-45.7721ZM128.913-28.6083L146.002-28.6083C147.094-28.6083 147.936-29.3782 147.936-30.3894C147.936-31.4006 147.094-32.162 146.002-32.162L128.913-32.162C127.83-32.162 127.06-31.4006 127.06-30.3894C127.06-29.3782 127.83-28.6083 128.913-28.6083Z"/>
  </g>
  <g id="Ultralight-L" transform="matrix(1 0 0 1 470.991 1556)">
   <path d="M32.0058 19.7856L145.435 19.7856C155.79 19.7856 161.357 14.0493 161.357 3.85032L161.357-74.0591C161.357-84.258 155.79-89.9943 145.435-89.9943L32.0058-89.9943C21.646-89.9943 16.084-84.4278 16.084-74.0591L16.084 3.85032C16.084 14.2191 21.646 19.7856 32.0058 19.7856ZM32.1666 17.2104C23.2346 17.2104 18.6637 12.626 18.6637 3.71194L18.6637-73.9207C18.6637-82.8392 23.2346-87.4191 32.1666-87.4191L145.274-87.4191C153.867-87.4191 158.777-82.8392 158.777-73.9207L158.777 3.71194C158.777 12.626 153.867 17.2104 145.274 17.2104ZM114.342 17.8488L116.94 17.8488L116.94-88.9201L114.342-88.9201ZM128.913-63.7577L146.804-63.7577C147.701-63.7577 148.362-64.4141 148.362-65.2313C148.362-65.9636 147.701-66.629 146.804-66.629L128.913-66.629C128.011-66.629 127.435-65.9636 127.435-65.2313C127.435-64.4141 128.011-63.7577 128.913-63.7577ZM128.913-46.3151L146.804-46.3151C147.701-46.3151 148.362-46.976 148.362-47.7038C148.362-48.521 147.701-49.1864 146.804-49.1864L128.913-49.1864C128.011-49.1864 127.435-48.521 127.435-47.7038C127.435-46.976 128.011-46.3151 128.913-46.3151ZM128.913-28.9574L146.804-28.9574C147.701-28.9574 148.362-29.5334 148.362-30.3506C148.362-31.1678 147.701-31.7483 146.804-31.7483L128.913-31.7483C128.011-31.7483 127.435-31.1678 127.435-30.3506C127.435-29.5334 128.011-28.9574 128.913-28.9574Z"/>
  </g>
  <g id="Black-M" transform="matrix(1 0 0 1 2861.97 1126)">
   <path d="M31.6184 13.203L111.233 13.203C123.325 13.203 130.39 6.13889 130.39-5.93804L130.39-64.4592C130.39-76.5361 123.325-83.6002 111.233-83.6002L31.6184-83.6002C19.5311-83.6002 12.4609-76.5356 12.4609-64.4592L12.4609-5.93804C12.4609 6.13832 19.5311 13.203 31.6184 13.203ZM34.2553-4.14048C31.2643-4.14048 29.7989-5.36104 29.7989-8.60235L29.7989-61.7949C29.7989-65.0307 31.2643-66.2568 34.2553-66.2568L108.596-66.2568C111.588-66.2568 113.052-65.0307 113.052-61.7949L113.052-8.60235C113.052-5.36104 111.588-4.14048 108.596-4.14048ZM68.468-2.44767L84.071-2.44767L84.071-68.6154L68.468-68.6154ZM94.4503-49.4457L102.445-49.4457C105.33-49.4457 107.566-51.6304 107.566-54.2252C107.566-56.8203 105.33-59.0511 102.445-59.0511L94.4503-59.0511C91.5703-59.0511 89.3337-56.8203 89.3337-54.2252C89.3337-51.6304 91.5703-49.4457 94.4503-49.4457ZM94.4503-34.4199L102.445-34.4199C105.33-34.4199 107.566-36.5991 107.566-39.1997C107.566-41.7945 105.33-43.9683 102.445-43.9683L94.4503-43.9683C91.5703-43.9683 89.3337-41.7945 89.3337-39.1997C89.3337-36.5991 91.5703-34.4199 94.4503-34.4199ZM94.4503-19.3368L102.445-19.3368C105.33-19.3368 107.566-21.5734 107.566-24.1682C107.566-26.763 105.33-28.937 102.445-28.937L94.4503-28.937C91.5703-28.937 89.3337-26.763 89.3337-24.1682C89.3337-21.5734 91.5703-19.3368 94.4503-19.3368Z"/>
  </g>
  <g id="Heavy-M" transform="matrix(1 0 0 1 2565.6 1126)">
   <path d="M30.7123 12.3923L111.469 12.3923C123.122 12.3923 129.72 5.79013 129.72-5.80979L129.72-64.5823C129.72-76.1823 123.122-82.7845 111.469-82.7845L30.7123-82.7845C19.075-82.7845 12.4609-76.1868 12.4609-64.5823L12.4609-5.80979C12.4609 5.79468 19.075 12.3923 30.7123 12.3923ZM32.7562-2.72369C29.3203-2.72369 27.5605-4.25976 27.5605-7.93579L27.5605-62.4563C27.5605-66.116 29.3203-67.6684 32.7562-67.6684L109.425-67.6684C112.852-67.6684 114.62-66.116 114.62-62.4563L114.62-7.93579C114.62-4.25976 112.852-2.72369 109.425-2.72369ZM71.86-1.06598L85.5853-1.06598L85.5853-69.8231L71.86-69.8231ZM95.7304-50.5507L104.301-50.5507C106.865-50.5507 108.877-52.5353 108.877-54.8627C108.877-57.1878 106.865-59.1833 104.301-59.1833L95.7304-59.1833C93.1826-59.1833 91.173-57.1878 91.173-54.8627C91.173-52.5353 93.1826-50.5507 95.7304-50.5507ZM95.7304-36.0904L104.301-36.0904C106.865-36.0904 108.877-38.0586 108.877-40.4001C108.877-42.7275 106.865-44.6794 104.301-44.6794L95.7304-44.6794C93.1826-44.6794 91.173-42.7275 91.173-40.4001C91.173-38.0586 93.1826-36.0904 95.7304-36.0904ZM95.7304-21.5887L104.301-21.5887C106.865-21.5887 108.877-23.5983 108.877-25.9257C108.877-28.2531 106.865-30.2027 104.301-30.2027L95.7304-30.2027C93.1826-30.2027 91.173-28.2531 91.173-25.9257C91.173-23.5983 93.1826-21.5887 95.7304-21.5887Z"/>
  </g>
  <g id="Bold-M" transform="matrix(1 0 0 1 2269.26 1126)">
   <path d="M29.6986 11.4855L111.733 11.4855C122.895 11.4855 128.97 5.39999 128.97-5.66632L128.97-64.7201C128.97-75.7864 122.895-81.8719 111.733-81.8719L29.6986-81.8719C18.5648-81.8719 12.4609-75.7967 12.4609-64.7201L12.4609-5.66632C12.4609 5.41026 18.5648 11.4855 29.6986 11.4855ZM31.0794-1.13881C27.1457-1.13881 25.0566-3.02783 25.0566-7.19016L25.0566-63.1963C25.0566-67.33 27.1457-69.2476 31.0794-69.2476L110.352-69.2476C114.265-69.2476 116.375-67.33 116.375-63.1963L116.375-7.19016C116.375-3.02783 114.265-1.13881 110.352-1.13881ZM75.6545 0.47963L87.2793 0.47963L87.2793-71.1741L75.6545-71.1741ZM97.1623-51.7868L106.377-51.7868C108.582-51.7868 110.343-53.5476 110.343-55.5759C110.343-57.599 108.582-59.3312 106.377-59.3312L97.1623-59.3312C94.9862-59.3312 93.2306-57.599 93.2306-55.5759C93.2306-53.5476 94.9862-51.7868 97.1623-51.7868ZM97.1623-37.959L106.377-37.959C108.582-37.959 110.343-39.6913 110.343-41.743C110.343-43.7712 108.582-45.4749 106.377-45.4749L97.1623-45.4749C94.9862-45.4749 93.2306-43.7712 93.2306-41.743C93.2306-39.6913 94.9862-37.959 97.1623-37.959ZM97.1623-24.1079L106.377-24.1079C108.582-24.1079 110.343-25.8635 110.343-27.8918C110.343-29.92 108.582-31.6185 106.377-31.6185L97.1623-31.6185C94.9862-31.6185 93.2306-29.92 93.2306-27.8918C93.2306-25.8635 94.9862-24.1079 97.1623-24.1079Z"/>
  </g>
  <g id="Semibold-M" transform="matrix(1 0 0 1 1972.81 1126)">
   <path d="M28.9998 10.8604L111.915 10.8604C122.739 10.8604 128.454 5.13104 128.454-5.56741L128.454-64.8151C128.454-75.5135 122.739-81.2428 111.915-81.2428L28.9998-81.2428C18.2131-81.2428 12.4609-75.5277 12.4609-64.8151L12.4609-5.56741C12.4609 5.14525 18.2131 10.8604 28.9998 10.8604ZM29.9233-0.0461991C25.6466-0.0461991 23.3305-2.17855 23.3305-6.67612L23.3305-63.7063C23.3305-68.1669 25.6466-70.3363 29.9233-70.3363L110.991-70.3363C115.24-70.3363 117.584-68.1669 117.584-63.7063L117.584-6.67612C117.584-2.17855 115.24-0.0461991 110.991-0.0461991ZM78.2704 1.54517L88.4471 1.54517L88.4471-72.1054L78.2704-72.1054ZM98.1495-52.6389L107.809-52.6389C109.766-52.6389 111.354-54.2455 111.354-56.0675C111.354-57.8824 109.766-59.4331 107.809-59.4331L98.1495-59.4331C96.2296-59.4331 94.649-57.8824 94.649-56.0675C94.649-54.2455 96.2296-52.6389 98.1495-52.6389ZM98.1495-39.2473L107.809-39.2473C109.766-39.2473 111.354-40.8168 111.354-42.6688C111.354-44.4907 109.766-46.0233 107.809-46.0233L98.1495-46.0233C96.2296-46.0233 94.649-44.4907 94.649-42.6688C94.649-40.8168 96.2296-39.2473 98.1495-39.2473ZM98.1495-25.8445L107.809-25.8445C109.766-25.8445 111.354-27.4251 111.354-29.2471C111.354-31.0691 109.766-32.5945 107.809-32.5945L98.1495-32.5945C96.2296-32.5945 94.649-31.0691 94.649-29.2471C94.649-27.4251 96.2296-25.8445 98.1495-25.8445Z"/>
  </g>
  <g id="Medium-M" transform="matrix(1 0 0 1 1676.29 1126)">
   <path d="M28.47 10.3864L112.053 10.3864C122.62 10.3864 128.062 4.9271 128.062-5.49242L128.062-64.8871C128.062-75.3066 122.62-80.7658 112.053-80.7658L28.47-80.7658C17.9464-80.7658 12.4609-75.3238 12.4609-64.8871L12.4609-5.49242C12.4609 4.9443 17.9464 10.3864 28.47 10.3864ZM29.0468 0.782262C24.5098 0.782262 22.0216-1.53459 22.0216-6.28636L22.0216-64.0931C22.0216-68.8015 24.5098-71.1617 29.0468-71.1617L111.476-71.1617C115.979-71.1617 118.501-68.8015 118.501-64.0931L118.501-6.28636C118.501-1.53459 115.979 0.782262 111.476 0.782262ZM80.2539 2.3531L89.3325 2.3531L89.3325-72.8116L80.2539-72.8116ZM98.8981-53.2851L108.895-53.2851C110.664-53.2851 112.12-54.7747 112.12-56.4403C112.12-58.0974 110.664-59.5104 108.895-59.5104L98.8981-59.5104C97.1725-59.5104 95.7246-58.0974 95.7246-56.4403C95.7246-54.7747 97.1725-53.2851 98.8981-53.2851ZM98.8981-40.224L108.895-40.224C110.664-40.224 112.12-41.6702 112.12-43.3707C112.12-45.0363 110.664-46.4391 108.895-46.4391L98.8981-46.4391C97.1725-46.4391 95.7246-45.0363 95.7246-43.3707C95.7246-41.6702 97.1725-40.224 98.8981-40.224ZM98.8981-27.1613L108.895-27.1613C110.664-27.1613 112.12-28.6092 112.12-30.2748C112.12-31.9405 110.664-33.3346 108.895-33.3346L98.8981-33.3346C97.1725-33.3346 95.7246-31.9405 95.7246-30.2748C95.7246-28.6092 97.1725-27.1613 98.8981-27.1613Z"/>
  </g>
  <g id="Regular-M" transform="matrix(1 0 0 1 1379.84 1126)">
   <path d="M27.7789 9.76808L112.233 9.76808C122.465 9.76808 127.551 4.6611 127.551-5.3946L127.551-64.981C127.551-75.0367 122.465-80.1437 112.233-80.1437L27.7789-80.1437C17.5986-80.1437 12.4609-75.0578 12.4609-64.981L12.4609-5.3946C12.4609 4.6822 17.5986 9.76808 27.7789 9.76808ZM27.9035 1.86286C23.0272 1.86286 20.3144-0.694633 20.3144-5.77797L20.3144-64.5976C20.3144-69.6292 23.0272-72.2384 27.9035-72.2384L112.108-72.2384C116.942-72.2384 119.697-69.6292 119.697-64.5976L119.697-5.77797C119.697-0.694633 116.942 1.86286 112.108 1.86286ZM82.8411 3.40693L90.4875 3.40693L90.4875-73.7328L82.8411-73.7328ZM99.8744-54.1279L110.31-54.1279C111.834-54.1279 113.12-55.4649 113.12-56.9266C113.12-58.3777 111.834-59.6112 110.31-59.6112L99.8744-59.6112C98.4022-59.6112 97.1275-58.3777 97.1275-56.9266C97.1275-55.4649 98.4022-54.1279 99.8744-54.1279ZM99.8744-41.4981L110.31-41.4981C111.834-41.4981 113.12-42.7834 113.12-44.2863C113.12-45.7479 111.834-46.9815 110.31-46.9815L99.8744-46.9815C98.4022-46.9815 97.1275-45.7479 97.1275-44.2863C97.1275-42.7834 98.4022-41.4981 99.8744-41.4981ZM99.8744-28.8789L110.31-28.8789C111.834-28.8789 113.12-30.1537 113.12-31.6153C113.12-33.077 111.834-34.3 110.31-34.3L99.8744-34.3C98.4022-34.3 97.1275-33.077 97.1275-31.6153C97.1275-30.1537 98.4022-28.8789 99.8744-28.8789Z"/>
  </g>
  <g id="Light-M" transform="matrix(1 0 0 1 1083.52 1126)">
   <path d="M26.8549 9.03231L112.37 9.03231C121.917 9.03231 126.764 4.13066 126.764-5.25771L126.764-65.0836C126.764-74.472 121.917-79.3737 112.37-79.3737L26.8549-79.3737C17.3419-79.3737 12.4609-74.5273 12.4609-65.0836L12.4609-5.25771C12.4609 4.18599 17.3419 9.03231 26.8549 9.03231ZM26.9795 2.95796C21.4701 2.95796 18.5006 0.0924704 18.5006-5.55553L18.5006-64.7858C18.5006-70.3992 21.4701-73.2993 26.9795-73.2993L112.245-73.2993C117.644-73.2993 120.724-70.3992 120.724-64.7858L120.724-5.55553C120.724 0.0924704 117.644 2.95796 112.245 2.95796ZM84.6206 4.17692L90.5217 4.17692L90.5217-74.691L84.6206-74.691ZM99.8744-55.1203L111.371-55.1203C112.639-55.1203 113.684-56.2007 113.684-57.4057C113.684-58.583 112.639-59.5941 111.371-59.5941L99.8744-59.5941C98.6418-59.5941 97.6237-58.583 97.6237-57.4057C97.6237-56.2007 98.6418-55.1203 99.8744-55.1203ZM99.8744-42.2168L111.371-42.2168C112.639-42.2168 113.684-43.2625 113.684-44.4745C113.684-45.6795 112.639-46.6906 111.371-46.6906L99.8744-46.6906C98.6418-46.6906 97.6237-45.6795 97.6237-44.4745C97.6237-43.2625 98.6418-42.2168 99.8744-42.2168ZM99.8744-29.3409L111.371-29.3409C112.639-29.3409 113.684-30.359 113.684-31.564C113.684-32.769 112.639-33.7524 111.371-33.7524L99.8744-33.7524C98.6418-33.7524 97.6237-32.769 97.6237-31.564C97.6237-30.359 98.6418-29.3409 99.8744-29.3409Z"/>
  </g>
  <g id="Thin-M" transform="matrix(1 0 0 1 787.33 1126)">
   <path d="M25.6328 8.0592L112.551 8.0592C121.193 8.0592 125.723 3.42911 125.723-5.07666L125.723-65.2194C125.723-73.7252 121.193-78.3553 112.551-78.3553L25.6328-78.3553C17.0024-78.3553 12.4609-73.8258 12.4609-65.2194L12.4609-5.07666C12.4609 3.5297 17.0024 8.0592 25.6328 8.0592ZM25.7574 4.40632C19.4107 4.40632 16.1018 1.13348 16.1018-5.26133L16.1018-65.0348C16.1018-71.4176 19.4107-74.7024 25.7574-74.7024L112.426-74.7024C118.572-74.7024 122.082-71.4176 122.082-65.0348L122.082-5.26133C122.082 1.13348 118.572 4.40632 112.426 4.40632ZM86.9742 5.19529L90.567 5.19529L90.567-75.9583L86.9742-75.9583ZM99.8744-56.4329L112.774-56.4329C113.702-56.4329 114.431-57.1738 114.431-58.0393C114.431-58.8546 113.702-59.5715 112.774-59.5715L99.8744-59.5715C98.9586-59.5715 98.28-58.8546 98.28-58.0393C98.28-57.1738 98.9586-56.4329 99.8744-56.4329ZM99.8744-43.1673L112.774-43.1673C113.702-43.1673 114.431-43.8962 114.431-44.7234C114.431-45.589 113.702-46.3059 112.774-46.3059L99.8744-46.3059C98.9586-46.3059 98.28-45.589 98.28-44.7234C98.28-43.8962 98.9586-43.1673 99.8744-43.1673ZM99.8744-29.9519L112.774-29.9519C113.702-29.9519 114.431-30.6306 114.431-31.4961C114.431-32.3616 113.702-33.0282 112.774-33.0282L99.8744-33.0282C98.9586-33.0282 98.28-32.3616 98.28-31.4961C98.28-30.6306 98.9586-29.9519 99.8744-29.9519Z"/>
  </g>
  <g id="Ultralight-M" transform="matrix(1 0 0 1 490.886 1126)">
   <path d="M25.0069 7.56077L112.644 7.56077C120.822 7.56077 125.189 3.06978 125.189-4.98393L125.189-65.289C125.189-73.3427 120.822-77.8337 112.644-77.8337L25.0069-77.8337C16.8286-77.8337 12.4609-73.4665 12.4609-65.289L12.4609-4.98393C12.4609 3.19355 16.8286 7.56077 25.0069 7.56077ZM25.1315 5.14816C18.3559 5.14816 14.8731 1.66668 14.8731-5.11065L14.8731-65.1623C14.8731-71.9392 18.3559-75.4211 25.1315-75.4211L112.519-75.4211C119.047-75.4211 122.777-71.9392 122.777-65.1623L122.777-5.11065C122.777 1.66668 119.047 5.14816 112.519 5.14816ZM88.1797 5.7169L90.5902 5.7169L90.5902-76.6074L88.1797-76.6074ZM99.8744-57.1052L113.493-57.1052C114.247-57.1052 114.814-57.6722 114.814-58.3639C114.814-58.9937 114.247-59.5599 113.493-59.5599L99.8744-59.5599C99.1209-59.5599 98.6161-58.9937 98.6161-58.3639C98.6161-57.6722 99.1209-57.1052 99.8744-57.1052ZM99.8744-43.6541L113.493-43.6541C114.247-43.6541 114.814-44.2207 114.814-44.8509C114.814-45.5426 114.247-46.1088 113.493-46.1088L99.8744-46.1088C99.1209-46.1088 98.6161-45.5426 98.6161-44.8509C98.6161-44.2207 99.1209-43.6541 99.8744-43.6541ZM99.8744-30.2649L113.493-30.2649C114.247-30.2649 114.814-30.7697 114.814-31.4613C114.814-32.153 114.247-32.6573 113.493-32.6573L99.8744-32.6573C99.1209-32.6573 98.6161-32.153 98.6161-31.4613C98.6161-30.7697 99.1209-30.2649 99.8744-30.2649Z"/>
  </g>
  <g id="Black-S" transform="matrix(1 0 0 1 2877.35 696)">
   <path d="M25 2.92969L87.1094 2.92969C96.6797 2.92969 102.344-2.73438 102.344-12.3047L102.344-58.1055C102.344-67.6758 96.6797-73.3398 87.1094-73.3398L25-73.3398C15.4297-73.3398 9.76562-67.6758 9.76562-58.1055L9.76562-12.3047C9.76562-2.73438 15.4297 2.92969 25 2.92969ZM27.2461-11.2305C25-11.2305 23.9258-12.1094 23.9258-14.5508L23.9258-55.8594C23.9258-58.3008 25-59.1797 27.2461-59.1797L84.8633-59.1797C87.1094-59.1797 88.1836-58.3008 88.1836-55.8594L88.1836-14.5508C88.1836-12.1094 87.1094-11.2305 84.8633-11.2305ZM52.7344-9.91211L65.4297-9.91211L65.4297-61.084L52.7344-61.084ZM73.6328-46.0938L79.7852-46.0938C82.1289-46.0938 83.9355-47.8516 83.9355-49.9512C83.9355-52.0508 82.1289-53.8574 79.7852-53.8574L73.6328-53.8574C71.2891-53.8574 69.4824-52.0508 69.4824-49.9512C69.4824-47.8516 71.2891-46.0938 73.6328-46.0938ZM73.6328-34.1309L79.7852-34.1309C82.1289-34.1309 83.9355-35.8887 83.9355-37.9883C83.9355-40.0879 82.1289-41.8457 79.7852-41.8457L73.6328-41.8457C71.2891-41.8457 69.4824-40.0879 69.4824-37.9883C69.4824-35.8887 71.2891-34.1309 73.6328-34.1309ZM73.6328-22.1191L79.7852-22.1191C82.1289-22.1191 83.9355-23.9258 83.9355-26.0254C83.9355-28.125 82.1289-29.8828 79.7852-29.8828L73.6328-29.8828C71.2891-29.8828 69.4824-28.125 69.4824-26.0254C69.4824-23.9258 71.2891-22.1191 73.6328-22.1191Z"/>
  </g>
  <g id="Heavy-S" transform="matrix(1 0 0 1 2580.87 696)">
   <path d="M24.3431 2.33042L87.2938 2.33042C96.576 2.33042 101.871-2.96486 101.871-12.2125L101.871-58.1977C101.871-67.4453 96.576-72.7406 87.2938-72.7406L24.3431-72.7406C15.0724-72.7406 9.76562-67.4453 9.76562-58.1977L9.76562-12.2125C9.76562-2.96486 15.0724 2.33042 24.3431 2.33042ZM26.0821-10.1587C23.5364-10.1587 22.2432-11.2681 22.2432-14.0091L22.2432-56.401C22.2432-59.1305 23.5364-60.2515 26.0821-60.2515L85.5547-60.2515C88.1005-60.2515 89.3937-59.1305 89.3937-56.401L89.3937-14.0091C89.3937-11.2681 88.1005-10.1587 85.5547-10.1587ZM55.4081-8.82881L66.7204-8.82881L66.7204-61.9944L55.4081-61.9944ZM74.7276-46.912L81.2372-46.912C83.339-46.912 84.9843-48.5315 84.9843-50.4352C84.9843-52.3389 83.339-53.9727 81.2372-53.9727L74.7276-53.9727C72.6374-53.9727 70.9921-52.3389 70.9921-50.4352C70.9921-48.5315 72.6374-46.912 74.7276-46.912ZM74.7276-35.4677L81.2372-35.4677C83.339-35.4677 84.9843-37.0757 84.9843-38.9909C84.9843-40.8946 83.339-42.4911 81.2372-42.4911L74.7276-42.4911C72.6374-42.4911 70.9921-40.8946 70.9921-38.9909C70.9921-37.0757 72.6374-35.4677 74.7276-35.4677ZM74.7276-23.9861L81.2372-23.9861C83.339-23.9861 84.9843-25.6314 84.9843-27.5351C84.9843-29.4388 83.339-31.0353 81.2372-31.0353L74.7276-31.0353C72.6374-31.0353 70.9921-29.4388 70.9921-27.5351C70.9921-25.6314 72.6374-23.9861 74.7276-23.9861Z"/>
  </g>
  <g id="Bold-S" transform="matrix(1 0 0 1 2284.42 696)">
   <path d="M23.6084 1.66016L87.5 1.66016C96.46 1.66016 101.343-3.22266 101.343-12.1094L101.343-58.3008C101.343-67.1875 96.46-72.0703 87.5-72.0703L23.6084-72.0703C14.6729-72.0703 9.76562-67.1875 9.76562-58.3008L9.76562-12.1094C9.76562-3.22266 14.6729 1.66016 23.6084 1.66016ZM24.7803-8.95996C21.8994-8.95996 20.3613-10.3271 20.3613-13.4033L20.3613-57.0068C20.3613-60.0586 21.8994-61.4502 24.7803-61.4502L86.3281-61.4502C89.209-61.4502 90.7471-60.0586 90.7471-57.0068L90.7471-13.4033C90.7471-10.3271 89.209-8.95996 86.3281-8.95996ZM58.3984-7.61719L68.1641-7.61719L68.1641-63.0127L58.3984-63.0127ZM75.9521-47.8271L82.8613-47.8271C84.6924-47.8271 86.1572-49.292 86.1572-50.9766C86.1572-52.6611 84.6924-54.1016 82.8613-54.1016L75.9521-54.1016C74.1455-54.1016 72.6807-52.6611 72.6807-50.9766C72.6807-49.292 74.1455-47.8271 75.9521-47.8271ZM75.9521-36.9629L82.8613-36.9629C84.6924-36.9629 86.1572-38.4033 86.1572-40.1123C86.1572-41.7969 84.6924-43.2129 82.8613-43.2129L75.9521-43.2129C74.1455-43.2129 72.6807-41.7969 72.6807-40.1123C72.6807-38.4033 74.1455-36.9629 75.9521-36.9629ZM75.9521-26.0742L82.8613-26.0742C84.6924-26.0742 86.1572-27.5391 86.1572-29.2236C86.1572-30.9082 84.6924-32.3242 82.8613-32.3242L75.9521-32.3242C74.1455-32.3242 72.6807-30.9082 72.6807-29.2236C72.6807-27.5391 74.1455-26.0742 75.9521-26.0742Z"/>
  </g>
  <g id="Semibold-S" transform="matrix(1 0 0 1 1987.89 696)">
   <path d="M23.1019 1.19805L87.6422 1.19805C96.38 1.19805 100.978-3.40039 100.978-12.0383L100.978-58.3719C100.978-67.0098 96.38-71.6082 87.6422-71.6082L23.1019-71.6082C14.3974-71.6082 9.76562-67.0098 9.76562-58.3719L9.76562-12.0383C9.76562-3.40039 14.3974 1.19805 23.1019 1.19805ZM23.8827-8.1335C20.7708-8.1335 19.0639-9.67842 19.0639-12.9856L19.0639-57.4245C19.0639-60.6984 20.7708-62.2767 23.8827-62.2767L86.8613-62.2767C89.9732-62.2767 91.6802-60.6984 91.6802-57.4245L91.6802-12.9856C91.6802-9.67842 89.9732-8.1335 86.8613-8.1335ZM60.4602-6.78184L69.1594-6.78184L69.1594-63.7147L60.4602-63.7147ZM76.7964-48.4581L83.9811-48.4581C85.6255-48.4581 86.9659-49.8163 86.9659-51.3498C86.9659-52.8833 85.6255-54.1904 83.9811-54.1904L76.7964-54.1904C75.1853-54.1904 73.8448-52.8833 73.8448-51.3498C73.8448-49.8163 75.1853-48.4581 76.7964-48.4581ZM76.7964-37.9937L83.9811-37.9937C85.6255-37.9937 86.9659-39.3187 86.9659-40.8854C86.9659-42.4189 85.6255-43.7105 83.9811-43.7105L76.7964-43.7105C75.1853-43.7105 73.8448-42.4189 73.8448-40.8854C73.8448-39.3187 75.1853-37.9937 76.7964-37.9937ZM76.7964-27.5139L83.9811-27.5139C85.6255-27.5139 86.9659-28.8543 86.9659-30.3878C86.9659-31.9213 85.6255-33.2129 83.9811-33.2129L76.7964-33.2129C75.1853-33.2129 73.8448-31.9213 73.8448-30.3878C73.8448-28.8543 75.1853-27.5139 76.7964-27.5139Z"/>
  </g>
  <g id="Medium-S" transform="matrix(1 0 0 1 1691.32 696)">
   <path d="M22.7178 0.847656L87.75 0.847656C96.3193 0.847656 100.702-3.53516 100.702-11.9844L100.702-58.4258C100.702-66.875 96.3193-71.2578 87.75-71.2578L22.7178-71.2578C14.1885-71.2578 9.76562-66.875 9.76562-58.4258L9.76562-11.9844C9.76562-3.53516 14.1885 0.847656 22.7178 0.847656ZM23.2021-7.50684C19.915-7.50684 18.0801-9.18652 18.0801-12.6689L18.0801-57.7412C18.0801-61.1836 19.915-62.9033 23.2021-62.9033L87.2656-62.9033C90.5527-62.9033 92.3877-61.1836 92.3877-57.7412L92.3877-12.6689C92.3877-9.18652 90.5527-7.50684 87.2656-7.50684ZM62.0234-6.14844L69.9141-6.14844L69.9141-64.2471L62.0234-64.2471ZM77.4365-48.9365L84.8301-48.9365C86.333-48.9365 87.5791-50.2139 87.5791-51.6328C87.5791-53.0518 86.333-54.2578 84.8301-54.2578L77.4365-54.2578C75.9736-54.2578 74.7275-53.0518 74.7275-51.6328C74.7275-50.2139 75.9736-48.9365 77.4365-48.9365ZM77.4365-38.7754L84.8301-38.7754C86.333-38.7754 87.5791-40.0127 87.5791-41.4717C87.5791-42.8906 86.333-44.0879 84.8301-44.0879L77.4365-44.0879C75.9736-44.0879 74.7275-42.8906 74.7275-41.4717C74.7275-40.0127 75.9736-38.7754 77.4365-38.7754ZM77.4365-28.6055L84.8301-28.6055C86.333-28.6055 87.5791-29.8516 87.5791-31.2705C87.5791-32.6895 86.333-33.8867 84.8301-33.8867L77.4365-33.8867C75.9736-33.8867 74.7275-32.6895 74.7275-31.2705C74.7275-29.8516 75.9736-28.6055 77.4365-28.6055Z"/>
  </g>
  <g id="Regular-S" transform="matrix(1 0 0 1 1394.79 696)">
   <path d="M22.2168 0.390625L87.8906 0.390625C96.2402 0.390625 100.342-3.71094 100.342-11.9141L100.342-58.4961C100.342-66.6992 96.2402-70.8008 87.8906-70.8008L22.2168-70.8008C13.916-70.8008 9.76562-66.6992 9.76562-58.4961L9.76562-11.9141C9.76562-3.71094 13.916 0.390625 22.2168 0.390625ZM22.3145-6.68945C18.7988-6.68945 16.7969-8.54492 16.7969-12.2559L16.7969-58.1543C16.7969-61.8164 18.7988-63.7207 22.3145-63.7207L87.793-63.7207C91.3086-63.7207 93.3105-61.8164 93.3105-58.1543L93.3105-12.2559C93.3105-8.54492 91.3086-6.68945 87.793-6.68945ZM64.0625-5.32227L70.8984-5.32227L70.8984-64.9414L64.0625-64.9414ZM78.2715-49.5605L85.9375-49.5605C87.2559-49.5605 88.3789-50.7324 88.3789-52.002C88.3789-53.2715 87.2559-54.3457 85.9375-54.3457L78.2715-54.3457C77.002-54.3457 75.8789-53.2715 75.8789-52.002C75.8789-50.7324 77.002-49.5605 78.2715-49.5605ZM78.2715-39.7949L85.9375-39.7949C87.2559-39.7949 88.3789-40.918 88.3789-42.2363C88.3789-43.5059 87.2559-44.5801 85.9375-44.5801L78.2715-44.5801C77.002-44.5801 75.8789-43.5059 75.8789-42.2363C75.8789-40.918 77.002-39.7949 78.2715-39.7949ZM78.2715-30.0293L85.9375-30.0293C87.2559-30.0293 88.3789-31.1523 88.3789-32.4219C88.3789-33.6914 87.2559-34.7656 85.9375-34.7656L78.2715-34.7656C77.002-34.7656 75.8789-33.6914 75.8789-32.4219C75.8789-31.1523 77.002-30.0293 78.2715-30.0293Z"/>
  </g>
  <g id="Light-S" transform="matrix(1 0 0 1 1098.43 696)">
   <path d="M21.3994-0.260249L88.0117-0.260249C95.7559-0.260249 99.6455-4.18017 99.6455-11.793L99.6455-58.5869C99.6455-66.1997 95.7559-70.1196 88.0117-70.1196L21.3994-70.1196C13.689-70.1196 9.76562-66.23 9.76562-58.5869L9.76562-11.793C9.76562-4.1499 13.689-0.260249 21.3994-0.260249ZM21.4971-5.72071C17.4214-5.72071 15.1924-7.84864 15.1924-12.0591L15.1924-58.3208C15.1924-62.4976 17.4214-64.6592 21.4971-64.6592L87.9141-64.6592C91.9292-64.6592 94.2187-62.4976 94.2187-58.3208L94.2187-12.0591C94.2187-7.84864 91.9292-5.72071 87.9141-5.72071ZM65.6367-4.64112L70.9287-4.64112L70.9287-65.7891L65.6367-65.7891ZM78.2715-50.4385L86.876-50.4385C87.9673-50.4385 88.8784-51.3833 88.8784-52.4258C88.8784-53.4531 87.9673-54.3306 86.876-54.3306L78.2715-54.3306C77.2139-54.3306 76.3179-53.4531 76.3179-52.4258C76.3179-51.3833 77.2139-50.4385 78.2715-50.4385ZM78.2715-40.4307L86.876-40.4307C87.9673-40.4307 88.8784-41.3418 88.8784-42.4028C88.8784-43.4453 87.9673-44.3228 86.876-44.3228L78.2715-44.3228C77.2139-44.3228 76.3179-43.4453 76.3179-42.4028C76.3179-41.3418 77.2139-40.4307 78.2715-40.4307ZM78.2715-30.438L86.876-30.438C87.9673-30.438 88.8784-31.334 88.8784-32.3765C88.8784-33.4189 87.9673-34.2813 86.876-34.2813L78.2715-34.2813C77.2139-34.2813 76.3179-33.4189 76.3179-32.3765C76.3179-31.334 77.2139-30.438 78.2715-30.438Z"/>
  </g>
  <g id="Thin-S" transform="matrix(1 0 0 1 802.177 696)">
   <path d="M20.3184-1.12108L88.1719-1.12108C95.1152-1.12108 98.7246-4.80077 98.7246-11.6328L98.7246-58.707C98.7246-65.5391 95.1152-69.2188 88.1719-69.2188L20.3184-69.2188C13.3887-69.2188 9.76562-65.6094 9.76562-58.707L9.76562-11.6328C9.76562-4.73046 13.3887-1.12108 20.3184-1.12108ZM20.416-4.43947C15.5996-4.43947 13.0703-6.92775 13.0703-11.7988L13.0703-58.541C13.0703-63.3984 15.5996-65.9004 20.416-65.9004L88.0742-65.9004C92.75-65.9004 95.4199-63.3984 95.4199-58.541L95.4199-11.7988C95.4199-6.92775 92.75-4.43947 88.0742-4.43947ZM67.7187-3.74025L70.9687-3.74025L70.9687-66.9101L67.7187-66.9101ZM78.2715-51.5996L88.1172-51.5996C88.9082-51.5996 89.5391-52.2441 89.5391-52.9863C89.5391-53.6934 88.9082-54.3105 88.1172-54.3105L78.2715-54.3105C77.4941-54.3105 76.8984-53.6934 76.8984-52.9863C76.8984-52.2441 77.4941-51.5996 78.2715-51.5996ZM78.2715-41.2715L88.1172-41.2715C88.9082-41.2715 89.5391-41.9023 89.5391-42.623C89.5391-43.3652 88.9082-43.9824 88.1172-43.9824L78.2715-43.9824C77.4941-43.9824 76.8984-43.3652 76.8984-42.623C76.8984-41.9023 77.4941-41.2715 78.2715-41.2715ZM78.2715-30.9785L88.1172-30.9785C88.9082-30.9785 89.5391-31.5742 89.5391-32.3164C89.5391-33.0586 88.9082-33.6406 88.1172-33.6406L78.2715-33.6406C77.4941-33.6406 76.8984-33.0586 76.8984-32.3164C76.8984-31.5742 77.4941-30.9785 78.2715-30.9785Z"/>
  </g>
  <g id="Ultralight-S" transform="matrix(1 0 0 1 505.702 696)">
   <path d="M19.7647-1.562L88.2539-1.562C94.7871-1.562 98.2529-5.11864 98.2529-11.5508L98.2529-58.7686C98.2529-65.2007 94.7871-68.7573 88.2539-68.7573L19.7647-68.7573C13.2349-68.7573 9.76562-65.2915 9.76562-58.7686L9.76562-11.5508C9.76562-5.02782 13.2349-1.562 19.7647-1.562ZM19.8623-3.78323C14.6665-3.78323 11.9834-6.45607 11.9834-11.6655L11.9834-58.6538C11.9834-63.8598 14.6665-66.5361 19.8623-66.5361L88.1562-66.5361C93.1704-66.5361 96.0351-63.8598 96.0351-58.6538L96.0351-11.6655C96.0351-6.45607 93.1704-3.78323 88.1562-3.78323ZM68.7851-3.27882L70.9893-3.27882L70.9893-67.4844L68.7851-67.4844ZM78.2715-52.1943L88.7529-52.1943C89.3901-52.1943 89.8774-52.685 89.8774-53.2734C89.8774-53.8164 89.3901-54.3003 88.7529-54.3003L78.2715-54.3003C77.6377-54.3003 77.1958-53.8164 77.1958-53.2734C77.1958-52.685 77.6377-52.1943 78.2715-52.1943ZM78.2715-41.7021L88.7529-41.7021C89.3901-41.7021 89.8774-42.1894 89.8774-42.7358C89.8774-43.3242 89.3901-43.8081 88.7529-43.8081L78.2715-43.8081C77.6377-43.8081 77.1958-43.3242 77.1958-42.7358C77.1958-42.1894 77.6377-41.7021 78.2715-41.7021ZM78.2715-31.2554L88.7529-31.2554C89.3901-31.2554 89.8774-31.6973 89.8774-32.2856C89.8774-32.874 89.3901-33.3125 88.7529-33.3125L78.2715-33.3125C77.6377-33.3125 77.1958-32.874 77.1958-32.2856C77.1958-31.6973 77.6377-31.2554 78.2715-31.2554Z"/>
  </g>
 </g>
</svg>
